<?xml version="1.0" standalone="no"?>
<?xml-stylesheet href="light.css" type="text/css"?>
<!DOCTYPE svg PUBLIC "-//W3C//DTD SVG 1.1//EN" "http://www.w3.org/Graphics/SVG/1.1/DTD/svg11.dtd">
<svg xmlns="http://www.w3.org/2000/svg" class="railroad-diagram" width="468" height="62" viewBox="0 0 468 62"><g transform="translate(.5 .5)"><path d="M 20 21 v 20 m 0 -10 h 20.5"></path><g><path d="M40 31h0"></path><path d="M428 31h0"></path><path d="M40 31h20"></path><g><path d="M60 31h0"></path><path d="M408 31h0"></path><g class="non-terminal"><path d="M60 31h0"></path><path d="M130 31h0"></path><rect x="60" y="20" width="70" height="22" rx="8" ry="8"></rect><text x="95" y="35">scope</text></g><path d="M130 31h10"></path><path d="M140 31h10"></path><g class="terminal"><path d="M150 31h0"></path><path d="M260 31h0"></path><rect x="150" y="20" width="110" height="22" rx="0" ry="0"></rect><text x="205" y="35">IDENTIFIER</text></g><path d="M260 31h10"></path><path d="M270 31h10"></path><g class="terminal"><path d="M280 31h0"></path><path d="M326 31h0"></path><rect x="280" y="20" width="46" height="22" rx="0" ry="0"></rect><text x="303" y="35">EQ</text></g><path d="M326 31h10"></path><path d="M336 31h10"></path><g class="non-terminal"><path d="M346 31h0"></path><path d="M408 31h0"></path><rect x="346" y="20" width="62" height="22" rx="8" ry="8"></rect><text x="377" y="35">expr</text></g></g><path d="M408 31h20"></path></g><path d="M 428 31 h 20 m 0 -10 v 20"></path></g></svg>