<?xml version="1.0" standalone="no"?>
<?xml-stylesheet href="light.css" type="text/css"?>
<!DOCTYPE svg PUBLIC "-//W3C//DTD SVG 1.1//EN" "http://www.w3.org/Graphics/SVG/1.1/DTD/svg11.dtd">
<svg xmlns="http://www.w3.org/2000/svg" class="railroad-diagram" width="626" height="86" viewBox="0 0 626 86"><g transform="translate(.5 .5)"><path d="M 20 45 v 20 m 0 -10 h 20.5"></path><g><path d="M40 55h0"></path><path d="M586 55h0"></path><path d="M40 55h20"></path><g><path d="M60 55h0"></path><path d="M566 55h0"></path><g class="terminal"><path d="M60 55h0"></path><path d="M138 55h0"></path><rect x="60" y="44" width="78" height="22" rx="0" ry="0"></rect><text x="99" y="59">IMPORT</text></g><path d="M138 55h10"></path><path d="M148 55h10"></path><g class="non-terminal"><path d="M158 55h0"></path><path d="M300 55h0"></path><rect x="158" y="44" width="142" height="22" rx="8" ry="8"></rect><text x="229" y="59">overDefinition</text></g><path d="M300 55h10"></path><g><path d="M310 55h0"></path><path d="M566 55h0"></path><path d="M310 55a10 10 0 0 0 10 -10v-15a10 10 0 0 1 10 -10"></path><g><path d="M330 20h216"></path></g><path d="M546 20a10 10 0 0 1 10 10v15a10 10 0 0 0 10 10"></path><path d="M310 55h20"></path><g><path d="M330 55h0"></path><path d="M546 55h0"></path><path d="M330 55h20"></path><g><path d="M350 55h0"></path><path d="M526 55h0"></path><g class="terminal"><path d="M350 55h0"></path><path d="M396 55h0"></path><rect x="350" y="44" width="46" height="22" rx="0" ry="0"></rect><text x="373" y="59">AS</text></g><path d="M396 55h10"></path><path d="M406 55h10"></path><g class="terminal"><path d="M416 55h0"></path><path d="M526 55h0"></path><rect x="416" y="44" width="110" height="22" rx="0" ry="0"></rect><text x="471" y="59">IDENTIFIER</text></g></g><path d="M526 55h20"></path></g><path d="M546 55h20"></path></g></g><path d="M566 55h20"></path></g><path d="M 586 55 h 20 m 0 -10 v 20"></path></g></svg>