<?xml version="1.0" standalone="no"?>
<?xml-stylesheet href="light.css" type="text/css"?>
<!DOCTYPE svg PUBLIC "-//W3C//DTD SVG 1.1//EN" "http://www.w3.org/Graphics/SVG/1.1/DTD/svg11.dtd">
<svg xmlns="http://www.w3.org/2000/svg" class="railroad-diagram" width="2306" height="86" viewBox="0 0 2306 86"><g transform="translate(.5 .5)"><path d="M 20 45 v 20 m 0 -10 h 20.5"></path><g><path d="M40 55h0"></path><path d="M2266 55h0"></path><path d="M40 55h20"></path><g><path d="M60 55h0"></path><path d="M2246 55h0"></path><g class="terminal"><path d="M60 55h0"></path><path d="M138 55h0"></path><rect x="60" y="44" width="78" height="22" rx="0" ry="0"></rect><text x="99" y="59">SELECT</text></g><path d="M138 55h10"></path><g><path d="M148 55h0"></path><path d="M330 55h0"></path><path d="M148 55a10 10 0 0 0 10 -10v-15a10 10 0 0 1 10 -10"></path><g><path d="M168 20h142"></path></g><path d="M310 20a10 10 0 0 1 10 10v15a10 10 0 0 0 10 10"></path><path d="M148 55h20"></path><g class="non-terminal"><path d="M168 55h0"></path><path d="M310 55h0"></path><rect x="168" y="44" width="142" height="22" rx="8" ry="8"></rect><text x="239" y="59">distinctClause</text></g><path d="M310 55h20"></path></g><path d="M330 55h10"></path><g class="non-terminal"><path d="M340 55h0"></path><path d="M474 55h0"></path><rect x="340" y="44" width="134" height="22" rx="8" ry="8"></rect><text x="407" y="59">selectColumns</text></g><path d="M474 55h10"></path><path d="M484 55h10"></path><g class="non-terminal"><path d="M494 55h0"></path><path d="M652 55h0"></path><rect x="494" y="44" width="158" height="22" rx="8" ry="8"></rect><text x="573" y="59">selectFromClause</text></g><path d="M652 55h10"></path><g><path d="M662 55h0"></path><path d="M998 55h0"></path><path d="M662 55a10 10 0 0 0 10 -10v-15a10 10 0 0 1 10 -10"></path><g><path d="M682 20h296"></path></g><path d="M978 20a10 10 0 0 1 10 10v15a10 10 0 0 0 10 10"></path><path d="M662 55h20"></path><g><path d="M682 55h0"></path><path d="M978 55h0"></path><path d="M682 55h20"></path><g><path d="M702 55h0"></path><path d="M958 55h0"></path><g class="terminal"><path d="M702 55h0"></path><path d="M772 55h0"></path><rect x="702" y="44" width="70" height="22" rx="0" ry="0"></rect><text x="737" y="59">WHERE</text></g><path d="M772 55h10"></path><path d="M782 55h10"></path><g class="non-terminal"><path d="M792 55h0"></path><path d="M958 55h0"></path><rect x="792" y="44" width="166" height="22" rx="8" ry="8"></rect><text x="875" y="59">selectWhereClause</text></g></g><path d="M958 55h20"></path></g><path d="M978 55h20"></path></g><g><path d="M998 55h0"></path><path d="M1220 55h0"></path><path d="M998 55a10 10 0 0 0 10 -10v-15a10 10 0 0 1 10 -10"></path><g><path d="M1018 20h182"></path></g><path d="M1200 20a10 10 0 0 1 10 10v15a10 10 0 0 0 10 10"></path><path d="M998 55h20"></path><g class="non-terminal"><path d="M1018 55h0"></path><path d="M1200 55h0"></path><rect x="1018" y="44" width="182" height="22" rx="8" ry="8"></rect><text x="1109" y="59">selectGroupByClause</text></g><path d="M1200 55h20"></path></g><g><path d="M1220 55h0"></path><path d="M1590 55h0"></path><path d="M1220 55a10 10 0 0 0 10 -10v-15a10 10 0 0 1 10 -10"></path><g><path d="M1240 20h330"></path></g><path d="M1570 20a10 10 0 0 1 10 10v15a10 10 0 0 0 10 10"></path><path d="M1220 55h20"></path><g><path d="M1240 55h0"></path><path d="M1570 55h0"></path><path d="M1240 55h20"></path><g><path d="M1260 55h0"></path><path d="M1550 55h0"></path><g class="terminal"><path d="M1260 55h0"></path><path d="M1330 55h0"></path><rect x="1260" y="44" width="70" height="22" rx="0" ry="0"></rect><text x="1295" y="59">ORDER</text></g><path d="M1330 55h10"></path><path d="M1340 55h10"></path><g class="terminal"><path d="M1350 55h0"></path><path d="M1396 55h0"></path><rect x="1350" y="44" width="46" height="22" rx="0" ry="0"></rect><text x="1373" y="59">BY</text></g><path d="M1396 55h10"></path><path d="M1406 55h10"></path><g class="non-terminal"><path d="M1416 55h0"></path><path d="M1550 55h0"></path><rect x="1416" y="44" width="134" height="22" rx="8" ry="8"></rect><text x="1483" y="59">orderByClause</text></g></g><path d="M1550 55h20"></path></g><path d="M1570 55h20"></path></g><g><path d="M1590 55h0"></path><path d="M2040 55h0"></path><path d="M1590 55a10 10 0 0 0 10 -10v-15a10 10 0 0 1 10 -10"></path><g><path d="M1610 20h410"></path></g><path d="M2020 20a10 10 0 0 1 10 10v15a10 10 0 0 0 10 10"></path><path d="M1590 55h20"></path><g><path d="M1610 55h0"></path><path d="M2020 55h0"></path><path d="M1610 55h20"></path><g><path d="M1630 55h0"></path><path d="M2000 55h0"></path><g class="terminal"><path d="M1630 55h0"></path><path d="M1740 55h0"></path><rect x="1630" y="44" width="110" height="22" rx="0" ry="0"></rect><text x="1685" y="59">DISTRIBUTE</text></g><path d="M1740 55h10"></path><path d="M1750 55h10"></path><g class="terminal"><path d="M1760 55h0"></path><path d="M1806 55h0"></path><rect x="1760" y="44" width="46" height="22" rx="0" ry="0"></rect><text x="1783" y="59">BY</text></g><path d="M1806 55h10"></path><path d="M1816 55h10"></path><g class="non-terminal"><path d="M1826 55h0"></path><path d="M2000 55h0"></path><rect x="1826" y="44" width="174" height="22" rx="8" ry="8"></rect><text x="1913" y="59">distributeByClause</text></g></g><path d="M2000 55h20"></path></g><path d="M2020 55h20"></path></g><g><path d="M2040 55h0"></path><path d="M2246 55h0"></path><path d="M2040 55a10 10 0 0 0 10 -10v-15a10 10 0 0 1 10 -10"></path><g><path d="M2060 20h166"></path></g><path d="M2226 20a10 10 0 0 1 10 10v15a10 10 0 0 0 10 10"></path><path d="M2040 55h20"></path><g class="non-terminal"><path d="M2060 55h0"></path><path d="M2226 55h0"></path><rect x="2060" y="44" width="166" height="22" rx="8" ry="8"></rect><text x="2143" y="59">limitOffsetClause</text></g><path d="M2226 55h20"></path></g></g><path d="M2246 55h20"></path></g><path d="M 2266 55 h 20 m 0 -10 v 20"></path></g></svg>